<?xml version="1.0" standalone="no"?>
<!DOCTYPE svg PUBLIC "-//W3C//DTD SVG 20010904//EN"
 "http://www.w3.org/TR/2001/REC-SVG-20010904/DTD/svg10.dtd">
<svg version="1.0" xmlns="http://www.w3.org/2000/svg"
 width="500.000000pt" height="500.000000pt" viewBox="0 0 500.000000 500.000000"
 preserveAspectRatio="xMidYMid meet">
<metadata>
Created by potrace 1.11, written by Peter Selinger 2001-2013
</metadata>
<g transform="translate(0.000000,500.000000) scale(0.100000,-0.100000)"
fill="#000000" stroke="none">
<path d="M2089 4980 c-528 -93 -989 -331 -1359 -700 -370 -369 -606 -829 -701
-1367 -27 -150 -37 -490 -20 -655 14 -132 50 -316 86 -442 101 -350 300 -713
525 -959 44 -48 54 -55 73 -47 12 5 49 14 82 20 105 18 174 87 190 190 13 83
45 149 95 199 55 55 109 83 199 101 77 16 148 61 173 111 10 19 23 62 29 94
15 80 45 142 95 192 53 53 100 76 194 97 83 19 140 53 169 100 11 17 29 68 40
113 25 101 38 128 93 184 52 54 114 84 202 100 115 20 170 77 196 204 17 84
47 143 97 191 50 49 102 75 198 98 127 31 173 78 199 204 19 91 58 165 111
207 55 45 89 60 179 83 134 35 178 82 210 226 9 38 27 88 41 112 47 80 147
143 250 158 61 9 126 45 156 87 12 17 31 68 41 112 23 100 59 167 112 211 54
44 94 64 156 77 27 6 50 14 50 18 0 12 -145 137 -245 212 -322 242 -692 399
-1101 469 -164 28 -655 28 -815 0z m581 -815 l325 -325 -63 -62 -62 -63 -327
327 -328 328 60 60 c33 33 62 60 65 60 3 0 151 -146 330 -325z m-228 -215 c21
-6 39 -14 42 -19 3 -4 -11 -101 -30 -216 -19 -114 -32 -210 -30 -212 6 -6 66
47 78 71 7 11 14 39 17 61 l6 40 82 10 c80 10 82 10 87 -12 9 -32 -13 -121
-42 -176 -33 -62 -99 -122 -170 -155 -81 -38 -193 -38 -272 -1 -70 33 -126 89
-159 159 -35 75 -37 190 -3 266 64 143 242 226 394 184z m-909 -744 c4 4 7 16
7 26 0 57 75 144 155 179 151 68 353 -16 428 -179 34 -73 31 -199 -5 -268 -33
-63 -98 -120 -153 -136 -50 -14 -50 -15 -37 -31 9 -10 -2 -26 -48 -72 l-60
-60 -327 328 -328 327 60 60 60 60 120 -120 c67 -66 124 -118 128 -114z m122
-706 c-55 -56 -60 -59 -77 -43 -17 15 -18 14 -18 -11 0 -41 -34 -99 -84 -143
-152 -134 -403 -71 -498 125 -29 62 -36 173 -14 239 29 86 104 156 189 177 24
6 27 9 16 22 -10 13 -3 25 47 75 l59 59 220 -220 220 -220 -60 -60z"/>
<path d="M2249 3753 c-58 -49 -73 -116 -40 -181 19 -37 57 -79 65 -71 5 5 46
239 46 263 0 25 -34 19 -71 -11z"/>
<path d="M1742 3240 c-74 -45 -94 -147 -42 -218 26 -34 92 -72 128 -72 40 0
89 27 118 65 97 127 -67 308 -204 225z"/>
<path d="M1190 2688 c-86 -59 -91 -173 -11 -241 108 -90 263 -15 248 121 -9
81 -77 142 -157 142 -32 0 -57 -7 -80 -22z"/>
<path d="M4327 4184 c-3 -3 -36 -13 -73 -20 -123 -26 -175 -77 -200 -194 -21
-102 -48 -152 -114 -213 -58 -54 -82 -64 -215 -96 -95 -23 -142 -78 -168 -198
-36 -163 -115 -244 -277 -283 -143 -36 -187 -79 -215 -209 -19 -90 -42 -136
-96 -190 -54 -54 -93 -73 -199 -100 -130 -33 -178 -82 -201 -206 -15 -80 -48
-142 -102 -192 -58 -53 -104 -76 -196 -97 -121 -27 -169 -77 -196 -205 -19
-90 -42 -135 -96 -189 -51 -50 -121 -85 -203 -100 -112 -22 -168 -77 -191
-189 -20 -98 -39 -138 -93 -195 -56 -60 -115 -91 -205 -108 -114 -21 -174 -80
-197 -195 -20 -98 -47 -150 -111 -210 -44 -40 -73 -58 -117 -71 -31 -9 -64
-19 -72 -21 -38 -12 243 -234 447 -353 264 -155 538 -254 860 -311 169 -30
509 -37 693 -15 715 87 1338 457 1752 1037 217 304 362 661 429 1053 27 157
36 476 19 642 -51 510 -257 995 -583 1377 -46 53 -65 66 -80 51z m229 -769
c62 -31 138 -109 167 -173 16 -36 21 -67 22 -132 0 -73 -4 -92 -27 -135 -36
-68 -87 -114 -149 -135 l-53 -18 121 -120 120 -120 -61 -61 -61 -61 -330 330
-330 330 60 60 c55 55 60 58 76 44 16 -15 19 -13 29 28 24 89 103 163 205 189
53 14 155 1 211 -26z m-553 -531 c65 -22 148 -100 178 -166 33 -75 34 -201 0
-275 -28 -62 -103 -136 -169 -166 -61 -27 -187 -29 -247 -3 -133 57 -206 166
-207 306 0 232 218 382 445 304z m-530 -530 c65 -22 148 -100 178 -166 32 -72
33 -201 2 -270 -30 -66 -96 -133 -162 -165 -79 -38 -191 -39 -271 -2 -65 31
-132 96 -162 159 -30 61 -37 179 -13 249 18 55 85 137 139 170 80 50 188 59
289 25z m-598 -519 c85 -22 134 -58 270 -195 l120 -120 -60 -60 -59 -60 -126
124 c-69 69 -138 130 -153 135 -109 42 -214 -50 -192 -167 5 -30 31 -61 137
-169 l131 -132 -62 -62 -63 -62 -221 221 -222 222 62 62 c48 48 65 60 74 51
10 -10 18 1 35 44 37 90 107 150 201 172 55 13 63 13 128 -4z m-752 -255 c71
-56 24 -170 -69 -170 -35 0 -47 5 -68 31 -28 33 -33 71 -12 108 28 51 104 67
149 31z m372 -390 l220 -220 -60 -60 -60 -60 -222 222 -223 223 57 57 c32 32
60 58 63 58 3 0 104 -99 225 -220z m-712 -289 c24 67 84 131 149 159 42 18 65
21 132 18 134 -6 230 -67 288 -185 59 -120 41 -261 -45 -352 -36 -37 -99 -70
-136 -71 -23 0 -23 -1 -8 -18 16 -17 13 -22 -43 -77 l-60 -60 -327 328 -328
327 60 60 60 60 120 -120 120 -120 18 51z"/>
<path d="M4342 3250 c-43 -26 -72 -76 -72 -123 0 -46 12 -71 53 -115 95 -99
252 -33 249 106 -1 114 -134 190 -230 132z"/>
<path d="M3853 2730 c-80 -18 -126 -77 -120 -157 5 -67 40 -115 102 -139 39
-15 51 -15 88 -4 49 14 103 67 112 111 23 106 -78 211 -182 189z"/>
<path d="M3307 2195 c-71 -24 -107 -75 -107 -148 0 -116 149 -197 239 -130 68
51 89 133 52 200 -40 71 -114 102 -184 78z"/>
<path d="M1995 896 c-97 -44 -117 -157 -44 -241 53 -60 144 -70 203 -24 107
84 51 263 -85 275 -25 3 -57 -2 -74 -10z"/>
</g>
</svg>
